<?xml version="1.0" encoding="utf-8"?>
<!-- Generator: Adobe Illustrator 24.0.3, SVG Export Plug-In . SVG Version: 6.00 Build 0)  -->
<svg version="1.1" id="nude_x5F_logo" xmlns="http://www.w3.org/2000/svg" xmlns:xlink="http://www.w3.org/1999/xlink" x="0px"
	 y="0px" viewBox="0 0 425.2 198.43" style="enable-background:new 0 0 425.2 198.43;" xml:space="preserve">
<style type="text/css">
	.st0{fill:#FFFFFF;}
</style>
<g>
	<path class="st0" d="M95.32,46.42c-29.11,0-52.8,23.68-52.8,52.8h11.73c0-22.68,18.39-41.06,41.07-41.06s41.06,18.39,41.06,41.06
		h11.73C148.11,70.1,124.43,46.42,95.32,46.42z"/>
	<path class="st0" d="M200.8,99.22c29.11,0,52.8-23.68,52.8-52.8h-11.73c0,22.68-18.39,41.06-41.06,41.06
		c-22.68,0-41.06-18.39-41.06-41.06h-11.73C148.01,75.54,171.7,99.22,200.8,99.22z"/>
	<path class="st0" d="M318.14,99.22c0-29.11-23.68-52.8-52.8-52.8v11.73c22.68,0,41.06,18.39,41.06,41.06
		c0,22.68-18.38,41.06-41.06,41.06v11.73C294.46,152.01,318.14,128.33,318.14,99.22z"/>
	<path class="st0" d="M329.88,99.22c0-29.11,23.68-52.8,52.8-52.8v11.73c-22.68,0-41.06,18.39-41.06,41.06
		c0,22.68,18.38,41.06,41.06,41.06v11.73C353.56,152.01,329.88,128.33,329.88,99.22z"/>
	<g>
		<path class="st0" d="M369.93,99.22c0,4.58-3.72,8.28-8.29,8.28c-4.58,0-8.3-3.71-8.3-8.28c0-4.58,3.71-8.29,8.3-8.29
			C366.21,90.93,369.93,94.65,369.93,99.22z"/>
	</g>
</g>
</svg>
